<?xml version="1.0" encoding="UTF-8" standalone="no"?>
<!-- Created with Inkscape (http://www.inkscape.org/) -->

<svg
   width="32"
   height="32"
   viewBox="0 0 8.4666665 8.4666666"
   version="1.1"
   id="svg1"
   inkscape:version="1.3.2 (091e20e, 2023-11-25, custom)"
   sodipodi:docname="curseur.svg"
   xmlns:inkscape="http://www.inkscape.org/namespaces/inkscape"
   xmlns:sodipodi="http://sodipodi.sourceforge.net/DTD/sodipodi-0.dtd"
   xmlns="http://www.w3.org/2000/svg"
   xmlns:svg="http://www.w3.org/2000/svg">
  <sodipodi:namedview
     id="namedview1"
     pagecolor="#ffffff"
     bordercolor="#000000"
     borderopacity="0.25"
     inkscape:showpageshadow="2"
     inkscape:pageopacity="0.0"
     inkscape:pagecheckerboard="0"
     inkscape:deskcolor="#d1d1d1"
     inkscape:document-units="mm"
     inkscape:zoom="17.788552"
     inkscape:cx="16.02154"
     inkscape:cy="15.852892"
     inkscape:window-width="1368"
     inkscape:window-height="842"
     inkscape:window-x="-6"
     inkscape:window-y="-6"
     inkscape:window-maximized="1"
     inkscape:current-layer="layer1" />
  <defs
     id="defs1" />
  <g
     inkscape:label="Calque 1"
     inkscape:groupmode="layer"
     id="layer1">
    <path
       d="M 6.1762629,3.0515139 C 6.3903801,3.1525564 6.4507432,3.2393752 6.8082184,3.2119988 6.9164381,3.2035509 7.2886244,2.3623889 6.9659713,2.2068414 5.311082,1.4093395 4.0219759,1.0561674 2.2847964,0.45836425 2.1168766,0.40047921 0.13909374,-0.04981032 0.1462888,0.25556319 0.20004557,2.5280998 0.25381334,4.8006437 0.307789,7.0734231 0.31493897,7.3708846 2.0456934,7.3816586 2.0400098,7.1487068 2.0050299,5.6738914 1.9700171,4.1995358 1.9352462,2.7249514 4.2020718,5.4485342 4.4432681,5.7131903 6.7681395,8.3878389 6.9817214,8.633729 7.8993528,7.9096617 8.0750691,7.7752829 5.5546559,4.8757625 5.3159244,4.7235799 2.8636569,1.7662023 3.6640228,2.0982571 4.872534,2.4064544 5.6557117,2.7838089 Z"
       id="path50"
       style="fill:#000000;fill-opacity:1;stroke-width:0.318338"
       sodipodi:nodetypes="ccccccccccccc" />
  </g>
</svg>
