<?xml version="1.0" encoding="UTF-8" standalone="no"?>
<svg
   version="1.0"
   width="1000pt"
   height="800pt"
   viewBox="0 0 1000 800"
   preserveAspectRatio="xMidYMid"
   id="svg1"
   xmlns="http://www.w3.org/2000/svg"
   xmlns:inkscape="http://www.inkscape.org/namespaces/inkscape"
   xmlns:sodipodi="http://sodipodi.sourceforge.net/DTD/sodipodi-0.dtd"
   xmlns:svg="http://www.w3.org/2000/svg">
  <defs id="defs1" />
  <sodipodi:namedview
     id="namedview1"
     pagecolor="#ffffff"
     bordercolor="#000000"
     borderopacity="0.25"
     inkscape:showpageshadow="2"
     inkscape:pageopacity="0.0"
     inkscape:pagecheckerboard="0"
     inkscape:deskcolor="#d1d1d1"
     inkscape:document-units="pt"
     inkscape:zoom="0.21943359"
     inkscape:cx="590.15577"
     inkscape:cy="647.12061"
     inkscape:window-width="1368"
     inkscape:window-height="842"
     inkscape:window-x="-6"
     inkscape:window-y="-6"
     inkscape:window-maximized="1"
     inkscape:current-layer="svg1" />
  <g
     transform="matrix(0.1,0,0,-0.1,0,807)"
     id="g1">
    <path
       d="m 8816.077,3407.0301 c -61.0259,-180.8545 -124.1985,-361.4023 -149.9582,-552.07 -13.4165,-99.1288 370.6788,-212.1341 374.3588,-184.9944 51.9027,384.5553 256.0636,727.7878 288.1099,1116.2531 7.5132,91.5389 -289.1066,204.1609 -362.3223,192.5077 -340.0126,-54.356 -681.7884,-93.1489 -1024.1776,-128.4151 -54.356,-5.5966 100.3554,-111.472 106.0287,-114.6153 67.0825,-38.3329 163.298,-93.6855 244.3337,-85.329 135.6217,13.9532 271.09,28.903 406.4817,44.6961 -4.9066,-3.7566 -9.9665,-6.8999 -14.7198,-11.1165 -902.8157,-799.3936 -1887.9705,-1437.8659 -3130.4921,-1447.9091 -808.0569,-6.5166 -1615.5004,227.3906 -2332.6318,610.4126 230.0739,159.0814 452.8646,330.6593 665.9186,518.567 635.559,560.5033 1251.7216,1292.7377 1343.7971,2166.8805 66.0859,626.8957 -357.569,989.2947 -907.2623,660.9353 -404.7185,-241.8037 -635.789,-619.1525 -775.6273,-1038.2841 -274.4634,631.2657 -795.9437,1221.3619 -1439.7826,1256.3981 -482.6875,26.2964 -871.6895,-347.3724 -1023.2575,-771.9473 -233.37054,-653.8054 12.7265,-1370.0167 398.0484,-1907.2902 278.45,-388.2353 646.5222,-713.2214 1063.7371,-976.7215 -389.2319,-212.5175 -793.6437,-387.392 -1187.4756,-523.0137 -217.9607,-75.0558 -208.6841,-386.932 51.366,-297.3864 498.634,171.7312 970.435,391.2252 1415.1729,657.332 724.2613,-392.3752 1559.6111,-616.0858 2322.8952,-676.0385 1426.5961,-112.0086 2627.1049,592.7029 3667.459,1491.1487 z m -6327.4534,-95.7555 c -492.5774,368.2255 -883.6493,853.9796 -1049.0173,1451.6657 -139.685,505.1506 -19.6265,1481.3354 714.218,1289.9011 669.2152,-174.5679 1155.4293,-1164.4759 1213.772,-1795.3583 18.9364,-204.7742 366.1555,-42.3961 384.172,103.0388 73.2158,592.0128 182.9244,1116.5598 641.0022,1522.3515 265.1868,234.9039 391.6853,53.9727 446.1946,-237.6638 70.5325,-377.4254 -142.2916,-797.0936 -326.6727,-1111.0398 -365.0822,-621.6825 -925.5855,-1133.5797 -1555.8545,-1537.0714 -161.7647,97.7488 -318.3161,202.4742 -467.8143,314.1762 z"
       id="path46"
       fill="#e9e5d91a"

       stroke-width="100" />
  </g>
</svg>
