<?xml version="1.0" encoding="UTF-8" standalone="no"?>
<!-- Created with Inkscape (http://www.inkscape.org/) -->

<svg
   width="155mm"
   height="155mm"
   viewBox="0 0 155 155"
   version="1.1"
   id="svg1"
   inkscape:version="1.3.2 (091e20e, 2023-11-25, custom)"
   sodipodi:docname="fleche_rond_2.svg"
   xmlns:inkscape="http://www.inkscape.org/namespaces/inkscape"
   xmlns:sodipodi="http://sodipodi.sourceforge.net/DTD/sodipodi-0.dtd"
   xmlns="http://www.w3.org/2000/svg"
   xmlns:svg="http://www.w3.org/2000/svg">
  <sodipodi:namedview
     id="namedview1"
     pagecolor="#ffffff"
     bordercolor="#000000"
     borderopacity="0.25"
     inkscape:showpageshadow="2"
     inkscape:pageopacity="0.0"
     inkscape:pagecheckerboard="0"
     inkscape:deskcolor="#d1d1d1"
     inkscape:document-units="mm"
     inkscape:zoom="0.55589226"
     inkscape:cx="397.55906"
     inkscape:cy="561.25984"
     inkscape:window-width="1368"
     inkscape:window-height="842"
     inkscape:window-x="-6"
     inkscape:window-y="-6"
     inkscape:window-maximized="1"
     inkscape:current-layer="layer1" />
  <defs
     id="defs1" />
  <g
     inkscape:label="Calque 1"
     inkscape:groupmode="layer"
     id="layer1">
    <path
       d="m 15.864588,129.98708 c 1.326122,-4.58408 2.654403,-9.166 3.980517,-13.75008 27.716525,41.32166 90.210655,44.58828 119.789845,2.25418 15.35959,-21.981545 13.2244,-51.588825 -0.26003,-73.771561 C 125.23328,21.459544 97.397754,11.581795 72.123626,6.485004 c -7.75553,-1.564087 -4.599231,5.914532 1.066521,7.058926 22.907448,4.620864 44.633733,13.501319 57.245893,34.247609 10.48136,17.241702 10.88593,39.102107 3.34888,57.416811 -7.93726,19.28172 -27.15406,32.49316 -47.091303,36.39579 -23.854985,4.67061 -47.20592,-9.81935 -58.887874,-29.89716 3.658187,2.29962 7.318534,4.59706 10.976709,6.89668 3.193071,2.00541 12.638144,-4.64681 9.22226,-6.79283 -5.449421,-3.42238 -10.896682,-6.84476 -16.34609,-10.26714 -3.919945,-2.461868 -7.876676,-2.851268 -12.060542,-0.82856 -4.648989,2.2477 -6.336383,5.46238 -7.720909,10.24334 -2.0811167,7.18873 -4.1644008,14.37746 -6.2455192,21.56619 -1.4299614,4.93671 9.2633602,0.81126 10.2325272,-2.53758 z"
       id="path43"
       style="stroke:black; stroke-width:10; fill:black;" />
  </g>
</svg>
