<?xml version="1.0" encoding="UTF-8" standalone="no"?>
<!-- Created with Inkscape (http://www.inkscape.org/) -->

<svg
   width="210mm"
   height="297mm"
   viewBox="0 0 210 297"
   version="1.1"
   id="svg1"
   inkscape:version="1.3.2 (091e20e, 2023-11-25, custom)"
   sodipodi:docname="fleche_pin_map.svg"
   xmlns:inkscape="http://www.inkscape.org/namespaces/inkscape"
   xmlns:sodipodi="http://sodipodi.sourceforge.net/DTD/sodipodi-0.dtd"
   xmlns="http://www.w3.org/2000/svg"
   xmlns:svg="http://www.w3.org/2000/svg">
  <sodipodi:namedview
     id="namedview1"
     pagecolor="#ffffff"
     bordercolor="#000000"
     borderopacity="0.25"
     inkscape:showpageshadow="2"
     inkscape:pageopacity="0.0"
     inkscape:pagecheckerboard="0"
     inkscape:deskcolor="#d1d1d1"
     inkscape:document-units="mm"
     inkscape:zoom="0.27794613"
     inkscape:cx="233.85827"
     inkscape:cy="791.52029"
     inkscape:window-width="1368"
     inkscape:window-height="842"
     inkscape:window-x="-6"
     inkscape:window-y="-6"
     inkscape:window-maximized="1"
     inkscape:current-layer="layer1" />
  <defs
     id="defs1" />
  <g
     inkscape:label="Calque 1"
     inkscape:groupmode="layer"
     id="layer1">
    <path
       d="m 104.31278,266.19323 c -4.453823,-4.86144 -9.140961,-9.51577 -14.183137,-13.88735 -4.963426,-4.30263 -20.04724,5.07176 -14.268739,10.08102 10.777953,9.34494 20.083266,19.72509 28.123156,31.52523 3.58607,5.2592 12.57273,0.0621 15.27129,-3.60906 8.85508,-12.02696 17.09214,-25.15513 28.04761,-35.3841 8.57235,-8.00697 -6.74155,-8.65123 -11.96461,-3.7734 -4.86466,4.54251 -9.22642,9.59128 -13.35488,14.8505 0.48698,-12.77647 0.0745,-26.93662 -2.12337,-40.62357 10.69906,-2.63284 20.85573,-7.3299 30.20714,-14.50527 17.95343,-13.77243 22.52552,-39.49941 12.47072,-58.93853 C 151.73045,131.03359 126.32884,121.88594 106.31787,112.84026 88.584698,104.82336 72.192604,93.105351 69.789837,72.341673 66.016434,39.728425 107.57348,46.361517 125.1587,53.625703 c 7.58955,3.135727 20.57969,-5.11784 9.72608,-9.601229 -28.57026,-11.803483 -74.318129,-17.585216 -82.76562,22.127862 -8.914239,41.908624 52.65377,56.778884 77.18762,72.470804 23.07116,14.75509 27.01886,41.05738 9.41725,61.70279 -5.54184,6.50154 -12.97374,10.91598 -21.17799,13.51925 -6.87957,-27.77816 -22.735853,-51.10896 -55.878203,-52.80173 -20.471241,-1.0448 -33.076639,4.44723 -29.211171,26.47981 4.026461,22.92643 30.391117,36.91577 51.260015,39.53878 7.044057,0.88454 13.982756,1.12058 20.767039,0.66341 1.5514,12.69421 0.85471,26.03605 -0.17144,38.46728 z M 55.320724,197.5911 c -8.29307,-10.55769 -10.452589,-27.37378 7.970818,-24.25769 13.167543,2.2286 23.340732,13.18395 30.509513,23.57081 4.11206,5.95927 6.846765,12.63174 8.638185,19.68226 -18.019159,0.88079 -36.77774,-5.83106 -47.118516,-18.99538 z"
       id="path45"
       style="stroke:black; stroke-width:1; fill:black;" />
  </g>
</svg>
