<?xml version="1.0" encoding="UTF-8" standalone="no"?>
<!-- Created with Inkscape (http://www.inkscape.org/) -->

<svg
   width="210mm"
   height="297mm"
   viewBox="0 0 210 297"
   version="1.1"
   id="svg1"
   inkscape:version="1.3.2 (091e20e, 2023-11-25, custom)"
   sodipodi:docname="fleche_res1.svg"
   xmlns:inkscape="http://www.inkscape.org/namespaces/inkscape"
   xmlns:sodipodi="http://sodipodi.sourceforge.net/DTD/sodipodi-0.dtd"
   xmlns="http://www.w3.org/2000/svg"
   xmlns:svg="http://www.w3.org/2000/svg">
  <sodipodi:namedview
     id="namedview1"
     pagecolor="#ffffff"
     bordercolor="#000000"
     borderopacity="0.25"
     inkscape:showpageshadow="2"
     inkscape:pageopacity="0.0"
     inkscape:pagecheckerboard="0"
     inkscape:deskcolor="#d1d1d1"
     inkscape:document-units="mm"
     inkscape:zoom="0.27794613"
     inkscape:cx="-75.55421"
     inkscape:cy="352.58631"
     inkscape:window-width="1368"
     inkscape:window-height="842"
     inkscape:window-x="-6"
     inkscape:window-y="-6"
     inkscape:window-maximized="1"
     inkscape:current-layer="layer1" />
  <defs
     id="defs1" />
  <g
     inkscape:label="Calque 1"
     inkscape:groupmode="layer"
     id="layer1">
    <path
       d="m 192.80968,194.01718 c 14.08348,-16.56838 4.61556,-36.82528 -10.25383,-48.595 -34.81981,-27.5603 -89.055021,-11.13313 -102.277092,31.31635 -0.676736,2.16856 -1.155865,4.37487 -1.537845,6.59516 C 58.078128,171.91204 40.113188,154.90401 31.482772,132.6736 21.756269,107.62203 29.14713,78.607496 44.667096,57.717929 61.480155,35.085616 90.383331,24.254905 117.75656,23.60035 c 3.8516,-0.09173 10.90432,-6.159427 3.82574,-5.990318 -51.004254,1.217599 -100.229967,34.075847 -104.559048,87.956908 -3.34631,41.64378 26.098029,69.32936 60.929789,86.27175 -0.300771,17.77996 7.35507,36.00559 17.787935,49.65536 13.323504,17.42987 34.664684,26.89184 56.119244,28.55902 -0.61658,0.14738 -1.2176,0.29626 -1.77861,0.46169 -3.42586,1.00871 -6.84977,2.01532 -10.27564,3.02403 -6.80007,2.00141 -0.94103,8.85314 4.1202,7.36304 4.56781,-1.3449 9.13368,-2.6898 13.7015,-4.03267 2.79123,-0.82164 8.45732,-1.41852 10.21007,-4.15997 2.00141,-3.1275 -0.3301,-5.51488 -2.4431,-7.85849 -3.60693,-4.00282 -7.21385,-8.00368 -10.82078,-12.00447 -3.20111,-3.55121 -12.99927,-1.27527 -8.53688,3.67655 2.00344,2.22421 4.00884,4.44646 6.0122,6.66871 0.14512,0.16092 0.29025,0.32032 0.43386,0.48124 -24.05481,-3.19908 -44.41712,-18.45242 -55.633795,-40.10993 -4.39074,-8.47514 -7.07257,-17.62274 -7.83856,-26.76048 12.929645,5.33983 26.189535,9.31678 38.480575,12.07019 22.79938,5.10898 49.08442,4.2396 65.31857,-14.85541 z m -86.2519,-44.20824 c 18.63746,-17.20895 44.67969,-14.53908 64.39542,-1.37866 20.24893,13.51449 26.51776,41.21601 1.34092,54.00632 -12.66301,6.43403 -28.99859,2.72161 -42.12321,-0.21881 -14.06762,-3.15133 -27.77115,-7.75502 -40.927578,-13.62796 -0.129332,-0.0602 -0.256408,-0.12332 -0.38574,-0.18122 0.682752,-14.30635 6.292744,-28.0656 17.700408,-38.5999 z"
       id="path23"
       style="stroke-width:1.98948" />
  </g>
</svg>
