<?xml version="1.0" encoding="UTF-8" standalone="no"?>
<svg
   width="210mm"
   height="100mm"
   viewBox="0 0 210 100"
   version="1.1"
   xmlns="http://www.w3.org/2000/svg">
  <g id="layer1">
    <path
       d="m 175.61897,32.95709 c 2.4197,0.81854 4.697,1.68829 6.90516,2.62713 -18.54741,-0.8407 -35.4854,6.86508 -51.95739,15.9853 -17.80492,9.85859 -38.449854,18.56539 -55.911894,5.90963 5.68151,-4.08171 9.87798,-10.27066 9.96509,-17.19516 0.11602,-9.25437 -10.07708,-17.44542 -18.69264,-12.22578 -10.23052,6.19585 -9.51425,16.62825 -2.58698,25.30051 0.31094,0.38985 0.63463,0.76737 0.95545,1.14625 -1.00798,0.4395 -1.9593,0.79089 -2.80548,1.03698 -15.78343,4.60994 -36.70908,-5.44499 -43.51054,-20.16374 -1.42971,-3.09312 -7.787319,-4.43294 -5.717432,0.0418 8.679152,18.78112 31.257132,30.42472 51.585432,26.74819 2.05886,-0.37209 4.11489,-1.04534 6.09489,-1.95377 6.51802,5.60543 14.32194,9.28892 23.15181,10.44625 16.083444,2.10584 32.104694,-7.67531 45.516814,-15.12804 15.1446,-8.41504 31.55713,-15.0091 48.87948,-13.28351 -3.70836,2.84144 -7.41673,5.68147 -11.12515,8.5229 -3.53277,2.70593 2.32293,7.43889 5.66077,4.88091 5.94281,-4.55319 11.88698,-9.10502 17.82979,-13.6582 2.09063,-1.60258 0.23099,-4.39976 -1.31494,-5.40632 -7.0448,-4.58919 -13.81723,-7.57163 -21.78012,-10.26653 -4.63894,-1.56793 -5.45199,5.17408 -1.14212,6.63279 z M 64.190676,43.83887 c -1.13795,-5.43119 10.11022,-16.22862 13.75775,-8.46343 3.07786,6.55393 -2.96445,12.91157 -9.22113,16.7914 -2.13354,-2.40037 -3.87293,-5.16023 -4.53662,-8.32797 z"
       id="fleche"
       fill="black"/>
  </g>
</svg>
